<svg width="54" height="54" viewBox="0 0 54 54" fill="none" xmlns="http://www.w3.org/2000/svg">
<g clip-path="url(#clip0_1_64)">
<path d="M52 2H2V52H52V2Z" stroke="#7C75FF" stroke-width="4"/>
<path d="M19.813 32.2078V36.1593C18.6469 36.4136 17.409 36.6291 16.0935 36.8059V32.2078H19.813Z" fill="#4D4A8C"/>
<path d="M24.892 29.8589V34.7334C23.7646 35.1313 22.521 35.5071 21.1671 35.8442V29.8589H24.892Z" fill="#4D4A8C"/>
<path d="M29.9931 26.8636V32.5504C28.9817 33.0754 27.7383 33.6558 26.2736 34.225V26.8636H29.9931Z" fill="#4D4A8C"/>
<path d="M35.177 25.3327V29.5218C33.9445 30.4007 32.6237 31.1577 31.4575 31.7822V25.3327H35.177Z" fill="#4D4A8C"/>
<path d="M32.6098 36.2974H36.5824C36.2146 37.2119 35.5086 38.6328 34.1793 40.0084C32.5166 41.7289 30.7111 42.5179 29.7161 42.8694C30.2919 42.0871 30.9552 41.0408 31.5308 39.7305C32.1015 38.4315 32.4226 37.2452 32.6098 36.2974Z" fill="#4D4A8C"/>
<path d="M42.1082 24.6081C41.6494 22.4511 39.3011 21.3335 38.6424 21.0441C39.0712 21.6718 39.5639 22.6085 39.5989 23.7583C39.7285 28.0056 33.4952 31.2292 30.2393 32.9131C26.5352 34.8286 19.8034 37.5615 10 37.6213C10.9944 37.9148 12.3529 38.2528 13.989 38.4714C14.4598 38.5344 15.2056 38.6203 16.1749 38.6641C16.1714 38.6641 16.1678 38.6641 16.1643 38.6643C16.6761 39.4393 17.5687 40.5757 18.9915 41.5614C19.9474 42.2236 20.8618 42.6232 21.5747 42.8693C21.2769 42.5181 20.9725 42.1213 20.6755 41.6758C19.9462 40.5819 19.4815 39.5243 19.1789 38.639C19.17 38.6392 19.1613 38.6392 19.1525 38.6393C19.6225 38.6114 20.113 38.5726 20.6278 38.5167C21.4957 41.2755 23.4874 43 23.4874 43H25.0078V37.8198L25.0069 37.82C25.4288 37.7301 25.8729 37.6268 26.332 37.5114V43H27.7871C28.4491 42.3598 29.3531 41.34 30.1084 39.8938C30.8447 38.4848 31.1666 37.1938 31.3183 36.2973C30.7677 36.6075 29.023 36.9238 27.7522 37.1224C29.4775 36.6111 31.3603 35.9063 33.2335 34.9219L33.2302 34.924L37.1546 34.8913L37.5185 32.068L37.4917 32.086C38.2553 31.447 38.9934 30.7464 39.6886 29.9704C42.3708 26.9761 42.2632 25.337 42.1082 24.6081Z" fill="#4D4A8C"/>
<path d="M26.2708 26.7833C26.5081 26.5042 26.8393 26.045 27.0538 25.4047C27.2121 24.9316 27.3468 24.5297 27.1792 24.2203C26.93 23.7598 26.0721 23.6158 25.0764 23.8797C25.4866 23.2288 25.8968 22.578 26.307 21.9272C26.4491 21.9135 28.6173 21.7248 29.1263 22.6986C29.5968 23.5988 28.6421 25.477 26.2708 26.7833Z" fill="#4D4A8C"/>
<path d="M34.5356 17.8114C31.6904 18.7386 29.4704 18.7147 27.9684 18.521C25.1294 18.1551 23.6183 17.0241 21.6519 17.7102C20.0783 18.2592 19.1307 19.652 18.5872 20.6991C18.9918 20.3646 19.7452 19.8292 20.8298 19.5226C21.9082 19.2179 22.8254 19.2775 23.3447 19.3496C22.9522 20.6495 22.4493 22.0535 21.8003 23.5242C20.4103 26.6743 18.7563 29.2086 17.2516 31.1533C18.7986 30.113 20.7423 28.586 22.66 26.4261C24.7429 24.0803 26.0914 21.7804 26.9512 20.0217C27.643 20.1997 29.0461 20.4601 30.7295 20.0463C32.7794 19.5423 34.0464 18.3329 34.5356 17.8114Z" fill="#4D4A8C"/>
<path d="M28.2917 15.2476C28.3225 16.298 27.496 17.1744 26.4458 17.2051C25.3954 17.2358 24.519 16.4094 24.4883 15.3592C24.4574 14.3088 25.2838 13.4324 26.3342 13.4017C27.3844 13.3708 28.261 14.1974 28.2917 15.2476Z" fill="#4D4A8C"/>
<path d="M37.6482 13.1931L39.8054 11.9938L38.7969 14.2466L41.0796 15.1855L38.6895 15.8016L39.3786 18.1715L37.4067 16.687L35.9835 18.7035L35.9148 16.2364L33.4508 16.3808L35.3369 14.7887L33.6876 12.9523L36.1083 13.4344L36.5157 11L37.6482 13.1931Z" fill="#4D4A8C"/>
</g>
<defs>
<clipPath id="clip0_1_64">
<rect width="54" height="54" fill="white"/>
</clipPath>
</defs>
</svg>
