<svg width="240" height="64" viewBox="0 0 240 64" fill="none" xmlns="http://www.w3.org/2000/svg">
<path d="M17.1727 41.1137V48.0288C15.1321 48.4738 12.9657 48.851 10.6637 49.1604V41.1137H17.1727Z" fill="#4D4A8C"/>
<path d="M26.0609 37.0031V45.5334C24.088 46.2298 21.9117 46.8874 19.5423 47.4774V37.0031H26.0609Z" fill="#4D4A8C"/>
<path d="M34.9877 31.7611V41.7131C33.2178 42.6319 31.0418 43.6475 28.4786 44.6436V31.7611H34.9877Z" fill="#4D4A8C"/>
<path d="M44.0596 29.0821V36.4131C41.9028 37.9511 39.5915 39.2759 37.5506 40.3688V29.0821H44.0596Z" fill="#4D4A8C"/>
<path d="M39.567 48.2702H46.5191C45.8754 49.8706 44.6399 52.3572 42.3136 54.7645C39.4039 57.7753 36.2444 59.156 34.5031 59.7711C35.5107 58.402 36.6715 56.5711 37.6788 54.278C38.6774 52.0049 39.2394 49.9287 39.567 48.2702Z" fill="#4D4A8C"/>
<path d="M56.1892 27.8142C55.3864 24.0396 51.2768 22.0837 50.124 21.5773C50.8745 22.6757 51.7366 24.3149 51.7979 26.3272C52.0247 33.7599 41.1166 39.4011 35.4187 42.348C28.9366 45.7002 17.156 50.4827 0 50.5874C1.74012 51.101 4.11765 51.6924 6.98074 52.075C7.80467 52.1852 9.10984 52.3356 10.806 52.4122C10.7999 52.4122 10.7936 52.4122 10.7875 52.4125C11.6831 53.7689 13.2451 55.7574 15.7351 57.4825C17.4079 58.6413 19.008 59.3406 20.2556 59.7712C19.7345 59.1567 19.2018 58.4623 18.6821 57.6826C17.4059 55.7684 16.5926 53.9175 16.0631 52.3683C16.0475 52.3686 16.0322 52.3686 16.0168 52.3688C16.8393 52.32 17.6977 52.252 18.5985 52.1543C20.1174 56.9822 23.6029 60 23.6029 60H26.2635V50.9347L26.2621 50.935C27.0004 50.7777 27.7775 50.5969 28.5809 50.3951V60H31.1273C32.2858 58.8796 33.8678 57.095 35.1897 54.5642C36.4781 52.0984 37.0415 49.8392 37.3069 48.2703C36.3433 48.8131 33.2902 49.3667 31.0663 49.7143C34.0855 48.8195 37.3804 47.586 40.6585 45.8633L40.6527 45.867L47.5204 45.8098L48.1572 40.8691L48.1103 40.9006C49.4467 39.7822 50.7383 38.5563 51.955 37.1982C56.6487 31.9582 56.4604 29.0899 56.1892 27.8142Z" fill="#4D4A8C"/>
<path d="M28.4738 31.6207C28.8891 31.1323 29.4686 30.3286 29.844 29.2082C30.1211 28.3802 30.3568 27.6769 30.0635 27.1355C29.6274 26.3295 28.1262 26.0776 26.3837 26.5395C27.1015 25.4003 27.8193 24.2614 28.5371 23.1226C28.7858 23.0985 32.5802 22.7683 33.4709 24.4725C34.2942 26.0478 32.6235 29.3346 28.4738 31.6207Z" fill="#4D4A8C"/>
<path d="M42.9372 15.9198C37.958 17.5425 34.0732 17.5006 31.4446 17.1617C26.4765 16.5214 23.832 14.5421 20.3908 15.7428C17.637 16.7036 15.9788 19.1409 15.0276 20.9733C15.7355 20.388 17.054 19.451 18.952 18.9145C20.8394 18.3812 22.4444 18.4856 23.3531 18.6117C22.6662 20.8866 21.7862 23.3436 20.6505 25.9172C18.218 31.43 15.3234 35.8649 12.6902 39.2682C15.3975 37.4477 18.799 34.7754 22.1549 30.9956C25.8 26.8904 28.1599 22.8656 29.6646 19.7879C30.8752 20.0994 33.3305 20.5551 36.2766 19.831C39.8639 18.9489 42.0812 16.8325 42.9372 15.9198Z" fill="#4D4A8C"/>
<path d="M32.0104 11.4333C32.0642 13.2715 30.6179 14.8051 28.78 14.8589C26.9419 14.9127 25.4082 13.4664 25.3544 11.6285C25.3004 9.79036 26.7466 8.25673 28.5848 8.20293C30.4227 8.14885 31.9566 9.59544 32.0104 11.4333Z" fill="#4D4A8C"/>
<path d="M48.3842 7.83783L52.1594 5.7391L50.3944 9.68149L54.3891 11.3244L50.2064 12.4026L51.4124 16.55L47.9617 13.9521L45.4711 17.481L45.3507 13.1635L41.0388 13.4162L44.3394 10.6301L41.4532 7.41647L45.6894 8.26007L46.4023 3.99985L48.3842 7.83783Z" fill="#4D4A8C"/>
<path d="M231.406 24.381C232.559 24.381 233.562 24.532 234.413 24.8341C235.292 25.1088 235.924 25.3834 236.308 25.658C237.242 26.2897 237.819 25.8777 238.038 24.4222H238.903C238.849 25.1911 238.807 26.1386 238.78 27.2646C238.752 28.3631 238.739 29.8324 238.739 31.6724H237.874C237.736 30.6563 237.475 29.6539 237.091 28.6652C236.706 27.6766 236.143 26.8664 235.402 26.2347C234.688 25.6031 233.754 25.2873 232.601 25.2873C231.804 25.2873 231.131 25.5207 230.582 25.9876C230.033 26.427 229.758 27.0724 229.758 27.9237C229.758 28.7476 230.005 29.4754 230.5 30.107C230.994 30.7112 231.626 31.3017 232.395 31.8784C233.191 32.4277 234.015 33.0181 234.866 33.6498C235.773 34.3364 236.597 35.0229 237.338 35.7095C238.08 36.3686 238.67 37.0964 239.109 37.8928C239.549 38.6893 239.769 39.6367 239.769 40.7353C239.769 41.9711 239.412 43.0559 238.697 43.9896C237.983 44.8959 237.036 45.5962 235.855 46.0906C234.702 46.5849 233.411 46.8321 231.983 46.8321C231.159 46.8321 230.417 46.7497 229.758 46.5849C229.127 46.4201 228.577 46.2142 228.11 45.967C227.753 45.8022 227.41 45.6512 227.081 45.5138C226.778 45.3491 226.49 45.2117 226.215 45.1019C225.941 45.0195 225.694 45.1156 225.474 45.3903C225.282 45.6649 225.131 46.0494 225.021 46.5437H224.156C224.211 45.6649 224.252 44.5938 224.279 43.3305C224.307 42.0672 224.321 40.392 224.321 38.3048H225.186C225.35 39.7878 225.652 41.106 226.092 42.2595C226.531 43.3855 227.122 44.278 227.863 44.9371C228.632 45.5688 229.593 45.8846 230.747 45.8846C231.214 45.8846 231.667 45.7885 232.106 45.5962C232.546 45.404 232.903 45.0882 233.177 44.6488C233.479 44.2093 233.631 43.6464 233.631 42.9598C233.631 41.7514 233.232 40.749 232.436 39.9526C231.667 39.1561 230.678 38.291 229.47 37.3573C228.591 36.6433 227.753 35.943 226.957 35.2564C226.188 34.5423 225.556 33.7734 225.062 32.9495C224.568 32.0981 224.321 31.1369 224.321 30.0658C224.321 28.83 224.65 27.7864 225.309 26.9351C225.968 26.0837 226.833 25.452 227.904 25.0401C229.003 24.6007 230.17 24.381 231.406 24.381Z" fill="#7C75FF"/>
<path d="M207.515 14V42.4243C207.515 43.5778 207.693 44.3605 208.05 44.7724C208.435 45.1844 209.08 45.3903 209.986 45.3903V46.2554C209.465 46.228 208.696 46.2005 207.679 46.173C206.691 46.1181 205.675 46.0906 204.631 46.0906C203.56 46.0906 202.475 46.1181 201.377 46.173C200.306 46.2005 199.495 46.228 198.946 46.2554V45.3903C199.907 45.3903 200.58 45.1844 200.965 44.7724C201.377 44.3605 201.583 43.5778 201.583 42.4243V18.9434C201.583 17.7075 201.39 16.8012 201.006 16.2245C200.649 15.6203 199.962 15.3182 198.946 15.3182V14.4531C199.825 14.5355 200.676 14.5767 201.5 14.5767C202.626 14.5767 203.697 14.5355 204.713 14.4531C205.73 14.3433 206.663 14.1922 207.515 14ZM220.944 24.9578V25.7817C220.093 25.9465 219.241 26.3035 218.39 26.8527C217.539 27.402 216.674 28.1023 215.795 28.9537L212.623 32.2492L213.035 31.4665L220.079 43.2482C220.381 43.7425 220.697 44.182 221.027 44.5664C221.356 44.9509 221.754 45.2256 222.221 45.3903V46.2554C221.809 46.228 221.191 46.2005 220.367 46.173C219.544 46.1181 218.72 46.0906 217.896 46.0906C216.88 46.0906 215.864 46.1181 214.847 46.173C213.831 46.2005 213.076 46.228 212.582 46.2554V45.3903C213.131 45.3903 213.502 45.2668 213.694 45.0196C213.886 44.745 213.859 44.4017 213.612 43.9897L209.533 36.6159C209.204 36.0941 208.874 35.7645 208.545 35.6272C208.242 35.4624 207.831 35.3663 207.309 35.3388V34.5561C207.885 34.5012 208.38 34.4051 208.792 34.2678C209.231 34.1305 209.629 33.8696 209.986 33.4851L213.117 30.4367C214.051 29.5579 214.518 28.7752 214.518 28.0886C214.518 27.402 214.216 26.8527 213.612 26.4408C213.035 26.0288 212.266 25.8091 211.305 25.7817V24.9578C212.074 24.9852 212.911 25.0127 213.818 25.0402C214.724 25.0676 215.493 25.0814 216.124 25.0814C216.674 25.0814 217.25 25.0814 217.855 25.0814C218.486 25.0539 219.077 25.0402 219.626 25.0402C220.175 25.0127 220.615 24.9852 220.944 24.9578Z" fill="#7C75FF"/>
<path d="M195.14 24.381C196.018 24.381 196.732 24.5732 197.282 24.9577C197.831 25.3147 198.229 25.7816 198.476 26.3583C198.751 26.9351 198.888 27.5392 198.888 28.1709C198.888 29.187 198.586 30.0247 197.982 30.6838C197.405 31.3154 196.636 31.6312 195.675 31.6312C194.714 31.6312 193.959 31.3978 193.409 30.9309C192.888 30.4366 192.627 29.7912 192.627 28.9948C192.627 28.2258 192.792 27.5942 193.121 27.0998C193.478 26.578 193.917 26.1386 194.439 25.7816C194.055 25.6717 193.67 25.6855 193.286 25.8228C192.764 25.9052 192.27 26.1249 191.803 26.4819C191.336 26.8115 190.938 27.2371 190.608 27.7589C190.279 28.2533 190.018 28.8025 189.825 29.4067C189.633 29.9835 189.537 30.5465 189.537 31.0957V42.0123C189.537 43.3305 189.853 44.2231 190.485 44.69C191.144 45.1568 192.119 45.3903 193.409 45.3903V46.2554C192.778 46.2279 191.858 46.2004 190.649 46.173C189.441 46.118 188.178 46.0906 186.859 46.0906C185.761 46.0906 184.649 46.118 183.523 46.173C182.397 46.2004 181.545 46.2279 180.969 46.2554V45.3903C181.93 45.3903 182.603 45.1843 182.987 44.7723C183.399 44.3604 183.605 43.5777 183.605 42.4242V29.4479C183.605 28.2121 183.413 27.3058 183.028 26.7291C182.671 26.1249 181.985 25.8228 180.969 25.8228V24.9577C181.847 25.0401 182.699 25.0813 183.523 25.0813C184.676 25.0813 185.747 25.0401 186.736 24.9577C187.752 24.8479 188.686 24.6968 189.537 24.5046V28.3357C189.867 27.5942 190.306 26.9213 190.855 26.3171C191.405 25.7129 192.036 25.2461 192.75 24.9165C193.464 24.5595 194.261 24.381 195.14 24.381Z" fill="#7C75FF"/>
<path d="M168.304 24.381C170.309 24.381 172.067 24.7517 173.577 25.4932C175.088 26.2347 176.268 27.4294 177.12 29.0772C177.971 30.725 178.397 32.9083 178.397 35.6271C178.397 38.346 177.971 40.5293 177.12 42.1771C176.268 43.7974 175.088 44.9783 173.577 45.7198C172.067 46.4613 170.309 46.8321 168.304 46.8321C166.354 46.8321 164.61 46.4613 163.072 45.7198C161.562 44.9783 160.367 43.7974 159.489 42.1771C158.637 40.5293 158.211 38.346 158.211 35.6271C158.211 32.9083 158.637 30.725 159.489 29.0772C160.367 27.4294 161.562 26.2347 163.072 25.4932C164.61 24.7517 166.354 24.381 168.304 24.381ZM168.304 25.2049C167.206 25.2049 166.286 26.0288 165.544 27.6766C164.803 29.2969 164.432 31.9471 164.432 35.6271C164.432 39.3072 164.803 41.9574 165.544 43.5777C166.286 45.198 167.206 46.0082 168.304 46.0082C169.43 46.0082 170.35 45.198 171.064 43.5777C171.806 41.9574 172.176 39.3072 172.176 35.6271C172.176 31.9471 171.806 29.2969 171.064 27.6766C170.35 26.0288 169.43 25.2049 168.304 25.2049Z" fill="#7C75FF"/>
<path d="M159.84 17.0896V17.9135C159.236 18.1332 158.604 18.6138 157.945 19.3553C157.286 20.0693 156.709 21.2228 156.215 22.8157L148.965 46.3378C148.745 46.3104 148.512 46.2966 148.265 46.2966C148.017 46.2966 147.77 46.2966 147.523 46.2966C147.276 46.2966 147.029 46.2966 146.782 46.2966C146.534 46.2966 146.301 46.3104 146.081 46.3378L137.43 20.138C137.156 19.2866 136.812 18.7099 136.401 18.4078C136.016 18.1057 135.604 17.941 135.165 17.9135V17.0896C135.934 17.1171 136.84 17.1445 137.884 17.172C138.955 17.1995 140.012 17.2132 141.056 17.2132C142.264 17.2132 143.39 17.1995 144.433 17.172C145.505 17.1445 146.356 17.1171 146.988 17.0896V17.9135C146.164 17.941 145.505 18.0371 145.01 18.2019C144.543 18.3666 144.269 18.6825 144.186 19.1493C144.131 19.6162 144.269 20.3577 144.598 21.3738L150.448 39.2523L149.5 40.9413L154.155 26.1524C154.815 24.0652 155.13 22.4312 155.103 21.2503C155.075 20.0693 154.76 19.2317 154.155 18.7374C153.551 18.2156 152.686 17.941 151.56 17.9135V17.0896C152.494 17.1171 153.373 17.1445 154.197 17.172C155.021 17.1995 155.844 17.2132 156.668 17.2132C157.3 17.2132 157.877 17.1995 158.398 17.172C158.948 17.1445 159.428 17.1171 159.84 17.0896ZM130.427 17.0896V17.9135C129.878 17.9959 129.494 18.2019 129.274 18.5314C129.054 18.8335 128.958 19.2455 128.985 19.7673C129.04 20.2616 129.164 20.7971 129.356 21.3738L135.659 39.6643L134.547 41.1473L139.82 25.7405L140.396 26.8527L133.929 46.3378C133.709 46.3104 133.476 46.2966 133.229 46.2966C132.981 46.2966 132.734 46.2966 132.487 46.2966C132.24 46.2966 131.993 46.2966 131.746 46.2966C131.498 46.2966 131.265 46.3104 131.045 46.3378L121.818 20.55C121.461 19.5338 121.035 18.8472 120.541 18.4902C120.074 18.1332 119.634 17.941 119.222 17.9135V17.0896C120.046 17.1171 121.021 17.1445 122.147 17.172C123.273 17.1995 124.344 17.2132 125.36 17.2132C126.459 17.2132 127.434 17.1995 128.285 17.172C129.164 17.1445 129.878 17.1171 130.427 17.0896Z" fill="#7C75FF"/>
<path d="M113.059 24.381C114.212 24.381 115.146 24.532 115.86 24.8341C116.602 25.1088 117.178 25.4932 117.59 25.9876C118.03 26.5094 118.346 27.1822 118.538 28.0061C118.758 28.83 118.867 29.9423 118.867 31.3429V42.4242C118.867 43.5777 119.06 44.3604 119.444 44.7723C119.856 45.1843 120.543 45.3903 121.504 45.3903V46.2554C120.982 46.2279 120.199 46.2004 119.156 46.173C118.112 46.118 117.082 46.0906 116.066 46.0906C115.023 46.0906 113.993 46.118 112.977 46.173C111.988 46.2004 111.233 46.2279 110.711 46.2554V45.3903C111.535 45.3903 112.111 45.1843 112.441 44.7723C112.771 44.3604 112.935 43.5777 112.935 42.4242V29.6127C112.935 28.9261 112.867 28.3357 112.729 27.8413C112.592 27.3195 112.345 26.9213 111.988 26.6467C111.631 26.3446 111.095 26.1935 110.381 26.1935C109.64 26.1935 108.953 26.3995 108.322 26.8115C107.717 27.2234 107.223 27.8001 106.839 28.5416C106.481 29.2557 106.303 30.0658 106.303 30.9721V42.4242C106.303 43.5777 106.468 44.3604 106.797 44.7723C107.154 45.1843 107.731 45.3903 108.527 45.3903V46.2554C108.033 46.2279 107.305 46.2004 106.344 46.173C105.41 46.118 104.435 46.0906 103.419 46.0906C102.376 46.0906 101.305 46.118 100.206 46.173C99.1077 46.2004 98.2838 46.2279 97.7345 46.2554V45.3903C98.6957 45.3903 99.3686 45.1843 99.753 44.7723C100.165 44.3604 100.371 43.5777 100.371 42.4242V29.4479C100.371 28.2121 100.179 27.3058 99.7942 26.7291C99.4372 26.1249 98.7506 25.8228 97.7345 25.8228V24.9577C98.6133 25.0401 99.4647 25.0813 100.289 25.0813C101.442 25.0813 102.513 25.0401 103.502 24.9577C104.518 24.8479 105.452 24.6968 106.303 24.5046V28.2121C106.99 26.8115 107.923 25.8228 109.104 25.2461C110.285 24.6693 111.603 24.381 113.059 24.381Z" fill="#7C75FF"/>
<path d="M90.0958 14.3296C91.2492 14.3296 92.1555 14.618 92.8146 15.1947C93.5012 15.7439 93.8445 16.5129 93.8445 17.5016C93.8445 18.4902 93.5012 19.2729 92.8146 19.8497C92.1555 20.3989 91.2492 20.6736 90.0958 20.6736C88.9423 20.6736 88.0223 20.3989 87.3357 19.8497C86.6766 19.2729 86.3471 18.4902 86.3471 17.5016C86.3471 16.5129 86.6766 15.7439 87.3357 15.1947C88.0223 14.618 88.9423 14.3296 90.0958 14.3296ZM93.309 24.5047V42.4244C93.309 43.5778 93.5012 44.3605 93.8857 44.7724C94.2976 45.1844 94.9842 45.3904 95.9454 45.3904V46.2555C95.4511 46.228 94.6821 46.2005 93.6385 46.1731C92.5949 46.1181 91.5376 46.0907 90.4665 46.0907C89.3955 46.0907 88.3107 46.1181 87.2122 46.1731C86.1136 46.2005 85.2897 46.228 84.7405 46.2555V45.3904C85.7017 45.3904 86.3745 45.1844 86.759 44.7724C87.171 44.3605 87.3769 43.5778 87.3769 42.4244V29.448C87.3769 28.2122 87.1847 27.3059 86.8002 26.7292C86.4432 26.125 85.7566 25.8229 84.7405 25.8229V24.9578C85.6193 25.0402 86.4707 25.0814 87.2945 25.0814C88.448 25.0814 89.5191 25.0402 90.5077 24.9578C91.5239 24.848 92.4576 24.6969 93.309 24.5047Z" fill="#7C75FF"/>
<path d="M68 54V53.1761C69.0985 53.0663 70.0323 52.7367 70.8012 52.1875C71.5702 51.6657 72.1607 50.7594 72.5726 49.4686C72.9846 48.1778 73.1905 46.3653 73.1905 44.0309V21.4562C73.1905 20.4401 73.1081 19.6986 72.9434 19.2317C72.806 18.7374 72.5177 18.4078 72.0783 18.2431C71.6389 18.0508 70.9797 17.941 70.1009 17.9135V17.0896C70.7875 17.1171 71.6801 17.1445 72.7786 17.172C73.9046 17.1995 75.0855 17.2132 76.3213 17.2132C77.5572 17.2132 78.7518 17.1995 79.9053 17.172C81.0862 17.1445 82.0611 17.1171 82.8301 17.0896V17.9135C81.9787 17.941 81.3196 18.0508 80.8527 18.2431C80.4133 18.4078 80.1112 18.7374 79.9465 19.2317C79.8091 19.6986 79.7405 20.4401 79.7405 21.4562V36.5335C79.7405 37.6595 79.7405 38.8816 79.7405 40.1998C79.7405 41.4906 79.6856 42.7539 79.5757 43.9897C79.4933 45.2256 79.3148 46.3241 79.0402 47.2853C78.4909 49.1802 77.2963 50.7731 75.4562 52.0639C73.6437 53.3546 71.1583 54 68 54Z" fill="#7C75FF"/>
</svg>
