<svg width="32" height="32" viewBox="0 0 32 32" fill="none" xmlns="http://www.w3.org/2000/svg">
<g clip-path="url(#clip0_5_135)">
<path d="M29 0H3C1.34315 0 0 1.34315 0 3V29C0 30.6569 1.34315 32 3 32H29C30.6569 32 32 30.6569 32 29V3C32 1.34315 30.6569 0 29 0Z" fill="#4D4A8C"/>
<path d="M10.5 28V27.4866C11.2407 27.4182 11.8704 27.2128 12.3889 26.8705C12.9074 26.5454 13.3056 25.9807 13.5833 25.1763C13.8611 24.372 14 23.2426 14 21.7879V7.72098C14 7.0878 13.9444 6.62574 13.8333 6.33482C13.7407 6.02679 13.5463 5.82143 13.25 5.71875C12.9537 5.59896 12.5093 5.53051 11.9167 5.51339V5C12.3796 5.01711 12.9815 5.03423 13.7222 5.05134C14.4815 5.06845 15.2778 5.07701 16.1111 5.07701C16.9444 5.07701 17.75 5.06845 18.5278 5.05134C19.3241 5.03423 19.9815 5.01711 20.5 5V5.51339C19.9259 5.53051 19.4815 5.59896 19.1667 5.71875C18.8704 5.82143 18.6667 6.02679 18.5556 6.33482C18.463 6.62574 18.4167 7.0878 18.4167 7.72098V17.1161C18.4167 17.8177 18.4167 18.5792 18.4167 19.4007C18.4167 20.205 18.3796 20.9922 18.3056 21.7623C18.25 22.5324 18.1296 23.2169 17.9444 23.8158C17.5741 24.9967 16.7685 25.9892 15.5278 26.7935C14.3056 27.5978 12.6296 28 10.5 28Z" fill="white"/>
</g>
<defs>
<clipPath id="clip0_5_135">
<rect width="32" height="32" fill="white"/>
</clipPath>
</defs>
</svg>
